<svg width="161" height="74" viewBox="0 0 161 74" fill="none" xmlns="http://www.w3.org/2000/svg">
<path d="M156.694 0.696777H4.19352C3.4045 0.696777 2.6478 1.00905 2.08988 1.56491C1.53196 2.12076 1.21852 2.87466 1.21852 3.66076V70.2882C1.22512 71.0699 1.54146 71.8174 2.09867 72.3679C2.65587 72.9184 3.40882 73.2273 4.19352 73.2272H156.694C157.483 73.2272 158.239 72.915 158.797 72.3591C159.355 71.8033 159.669 71.0494 159.669 70.2633V3.63585C159.662 2.85408 159.346 2.10656 158.788 1.55608C158.231 1.0056 157.478 0.69675 156.694 0.696777Z" fill="#1F3E60"/>
<path d="M106.194 19.104C106.038 18.5804 105.702 18.1283 105.245 17.8275C104.787 17.5267 104.238 17.3966 103.694 17.4601H98.9935C98.4492 17.3966 97.8998 17.5267 97.4424 17.8275C96.985 18.1283 96.6489 18.5804 96.4935 19.104C96.0435 20.0505 83.0685 55.0454 83.0685 55.0454C83.0685 55.0454 82.3185 56.5648 84.2685 56.5648H87.5685C88.1051 56.6479 88.6538 56.5348 89.1133 56.2464C89.5728 55.958 89.912 55.5137 90.0685 54.9956C90.5185 53.8001 92.4185 48.445 92.4185 48.445H110.569C110.569 48.445 112.519 53.8001 112.919 54.9956C113.075 55.5137 113.414 55.958 113.874 56.2464C114.333 56.5348 114.882 56.6479 115.419 56.5648H118.719C120.669 56.5648 119.919 55.0454 119.919 55.0454C119.919 55.0454 106.694 20.0256 106.194 19.104ZM94.8685 42.1434L101.319 23.9859L108.169 42.1434H94.8685ZM72.6685 17.5597H58.3685C57.0935 17.5597 56.9685 18.556 56.9685 19.2036V55.0953C56.9563 55.2946 56.9881 55.4942 57.0615 55.6801C57.1349 55.866 57.2482 56.0336 57.3935 56.1712C57.5388 56.3088 57.7126 56.4132 57.9026 56.4768C58.0926 56.5405 58.2943 56.562 58.4935 56.5399H62.1685C62.4923 56.5346 62.8025 56.4092 63.0383 56.188C63.2742 55.9669 63.4187 55.666 63.4435 55.3443V42.4174H72.7435C76.0587 42.4174 79.2381 41.1053 81.5823 38.7698C83.9265 36.4342 85.2435 33.2666 85.2435 29.9637C85.2173 26.6513 83.8832 23.4824 81.5299 21.1424C79.1766 18.8025 75.9932 17.4797 72.6685 17.4601V17.5597ZM72.5435 36.34H63.3685V23.8862H72.5435C74.2011 23.8862 75.7908 24.5423 76.9629 25.71C78.135 26.8778 78.7935 28.4616 78.7935 30.1131C78.7935 31.7646 78.135 33.3484 76.9629 34.5161C75.7908 35.6839 74.2011 36.34 72.5435 36.34V36.34ZM157.544 0.0996297H3.39352C3.00284 0.0996297 2.61598 0.176295 2.25504 0.32525C1.89409 0.474204 1.56613 0.69253 1.28988 0.967761C1.01362 1.24299 0.794485 1.56974 0.644978 1.92935C0.49547 2.28895 0.418518 2.67438 0.418518 3.06362V71.036C0.418518 71.4252 0.49547 71.8107 0.644978 72.1703C0.794485 72.5299 1.01362 72.8566 1.28988 73.1319C1.56613 73.4071 1.89409 73.6254 2.25504 73.7744C2.61598 73.9233 3.00284 74 3.39352 74H157.444C158.233 74 158.989 73.6877 159.547 73.1319C160.105 72.576 160.419 71.8221 160.419 71.036V2.96399C160.419 2.17789 160.105 1.42399 159.547 0.868132C158.989 0.312277 158.233 0 157.444 0L157.544 0.0996297ZM23.2185 22.5163H33.2185C34.5096 22.5678 35.7306 23.1153 36.6255 24.044C37.5203 24.9727 38.0195 26.2105 38.0185 27.4978C37.9925 28.7445 37.4787 29.9317 36.5867 30.8064C35.6947 31.6812 34.4951 32.1742 33.2435 32.1804H31.4685C31.2743 32.1655 31.0791 32.1926 30.8964 32.2599C30.7136 32.3272 30.5477 32.4331 30.4099 32.5704C30.2722 32.7076 30.1658 32.8729 30.0983 33.055C30.0307 33.2371 30.0035 33.4315 30.0185 33.625V39.6526C30.0095 39.8491 30.0439 40.0451 30.1191 40.2269C30.1944 40.4087 30.3088 40.5718 30.4542 40.7048C30.5995 40.8378 30.7724 40.9374 30.9607 40.9966C31.1489 41.0558 31.3478 41.0732 31.5435 41.0475H35.8435C37.2226 41.0475 38.5453 41.5933 39.5205 42.5649C40.4957 43.5364 41.0435 44.8542 41.0435 46.2282C41.0451 47.5073 40.5528 48.7381 39.6685 49.6654C38.7842 50.5928 37.5758 51.1457 36.2935 51.2097H24.5685C24.3733 51.2291 24.1762 51.2051 23.9914 51.1393C23.8066 51.0736 23.6388 50.9678 23.5001 50.8296C23.3613 50.6913 23.2551 50.5242 23.1891 50.3401C23.1232 50.156 23.099 49.9596 23.1185 49.7651L23.2185 22.5163ZM4.64352 5.60417C4.63619 5.2532 4.76437 4.91281 5.00162 4.65326C5.23888 4.39371 5.56709 4.23481 5.91852 4.20936H13.9435V13.4749H4.64352V5.60417ZM156.169 68.2713C156.183 68.4746 156.154 68.6788 156.083 68.8698C156.011 69.0609 155.9 69.2344 155.755 69.3786C155.61 69.5228 155.436 69.6342 155.244 69.7053C155.053 69.7764 154.848 69.8055 154.644 69.7906H5.91852C5.56448 69.7603 5.23396 69.6015 4.9897 69.3443C4.74545 69.0872 4.60446 68.7497 4.59352 68.3958V22.7405H20.1685L13.8935 25.0071V59.3046C13.8764 59.4918 13.8975 59.6806 13.9555 59.8595C14.0135 60.0384 14.1072 60.2038 14.231 60.3457C14.3547 60.4876 14.506 60.6031 14.6757 60.6853C14.8454 60.7675 15.0301 60.8147 15.2185 60.824H36.4685C39.9551 60.7079 43.2606 59.2492 45.6898 56.7547C48.119 54.2602 49.4825 50.9243 49.4935 47.4487C49.5013 45.1907 48.9287 42.9684 47.8303 40.9933C46.7319 39.0182 45.1442 37.3562 43.2185 36.1656C44.4666 35.0591 45.4759 33.7113 46.185 32.2041C46.8942 30.6969 47.2883 29.0618 47.3435 27.3982C47.3435 18.5062 41.0185 13.5247 32.0435 13.5247H23.2435V4.20936H154.719C154.924 4.19013 155.13 4.21623 155.324 4.28578C155.518 4.35534 155.694 4.46664 155.84 4.61175C155.985 4.75687 156.097 4.93221 156.167 5.12528C156.237 5.31835 156.263 5.5244 156.244 5.72871V68.2713H156.169ZM145.744 17.3854H142.019C141.482 17.3023 140.933 17.4154 140.474 17.7038C140.014 17.9922 139.675 18.4365 139.519 18.9546L137.844 22.2174L130.694 34.6712L123.544 22.2174L121.694 18.9546C121.537 18.4365 121.198 17.9922 120.738 17.7038C120.279 17.4154 119.73 17.3023 119.194 17.3854H115.619C113.669 17.3854 114.419 18.9047 114.419 18.9047C114.419 18.9047 121.644 31.7072 127.444 41.969C127.444 41.969 127.319 54.2733 127.319 55.0703C127.294 55.2593 127.313 55.4514 127.375 55.6317C127.437 55.8121 127.539 55.976 127.674 56.1107C127.81 56.2454 127.974 56.3474 128.155 56.4089C128.336 56.4704 128.529 56.4896 128.719 56.4652H132.144C132.769 56.4652 133.844 56.4652 133.844 55.0703V41.9192C139.669 31.5826 146.869 18.8549 146.869 18.8549C146.869 18.8549 147.644 17.3854 145.744 17.3854Z" fill="white"/>
</svg>
