<svg width="160" height="80" viewBox="0 0 160 80" fill="none" xmlns="http://www.w3.org/2000/svg">
<path d="M121.017 25.4276C121.952 25.0987 123.139 25.1493 123.847 25.9337C127.636 29.6024 131.426 33.2711 135.241 36.9146C135.266 33.1446 135.216 29.3494 135.266 25.5794C136.378 25.63 137.515 25.5541 138.626 25.63C138.601 30.5892 138.652 35.5483 138.601 40.5074C138.601 41.4436 137.54 41.8484 136.757 41.7725C135.948 41.7725 135.216 41.3677 134.66 40.7857C131.679 37.9519 124.276 30.8928 123.493 30.3108C123.493 34.0049 123.493 37.6989 123.493 41.393C122.407 41.393 121.32 41.393 120.234 41.393C120.183 36.5604 120.234 31.7024 120.209 26.8445C120.108 26.2373 120.436 25.6047 121.017 25.4276Z" fill="#0F6BB5"/>
<path d="M92.8723 26.3643C93.9082 25.6052 95.2472 25.5546 96.4599 25.5546C100.275 25.5546 104.09 25.5799 107.93 25.5293C107.98 26.5414 107.955 27.5787 107.93 28.5908C104.014 28.5655 100.073 28.5908 96.1567 28.5908C95.6262 28.5655 95.0703 28.8438 94.9187 29.3752C94.7924 29.9318 94.8177 30.5137 94.8682 31.0704C94.944 31.6776 95.5756 31.9812 96.1314 31.9559C98.8095 31.9812 101.462 31.9559 104.14 31.9559C105.429 32.0065 106.945 32.1836 107.829 33.2716C108.713 34.4102 108.536 35.9283 108.562 37.2946C108.562 38.4584 108.334 39.7741 107.349 40.5079C106.288 41.2922 104.923 41.3428 103.66 41.3428C99.6432 41.3428 95.6262 41.3428 91.6091 41.3428C91.6091 40.3308 91.5838 39.344 91.6344 38.3319C95.6514 38.3572 99.6432 38.3319 103.66 38.3319C104.241 38.3319 105.05 38.256 105.252 37.5729C105.378 36.9403 105.378 36.2572 105.252 35.6247C105.075 34.9415 104.267 34.815 103.686 34.815C100.906 34.7897 98.1273 34.815 95.3482 34.7897C94.2113 34.7138 92.8976 34.4608 92.2407 33.4487C91.508 32.3354 91.7102 30.9186 91.6596 29.6535C91.6091 28.4896 91.8617 27.1233 92.8723 26.3643Z" fill="#0F6BB5"/>
<path d="M48.9626 26.5411C50.2006 25.6808 51.7923 25.6302 53.2323 25.5796C56.9462 25.6049 60.6348 25.5543 64.3487 25.6049C64.3234 26.617 64.3234 27.629 64.3487 28.6411C60.5843 28.6664 56.8199 28.6411 53.0555 28.6664C52.3986 28.6917 51.6154 28.8688 51.2364 29.476C50.8575 30.1845 50.9333 31.0194 50.908 31.8038C50.908 33.1448 50.908 34.4858 50.908 35.8268C50.9585 36.4593 50.9333 37.1678 51.3628 37.6738C51.767 38.1798 52.4744 38.2557 53.0555 38.3063C56.8199 38.3316 60.5843 38.281 64.3487 38.3316C64.3234 39.3437 64.3487 40.3305 64.3487 41.3425C60.4327 41.3678 56.4915 41.3425 52.5755 41.3425C51.1859 41.2666 49.67 41.0895 48.6089 40.1027C47.6994 39.2172 47.472 37.8509 47.4215 36.6364C47.4215 34.5111 47.4215 32.411 47.4215 30.2857C47.4468 28.9447 47.7752 27.4013 48.9626 26.5411Z" fill="#0F6BB5"/>
<path d="M112.301 41.3425C112.351 36.0798 112.275 30.817 112.351 25.5796C113.513 25.6049 114.675 25.5796 115.863 25.6049C115.863 30.8676 115.863 36.1304 115.863 41.3931C114.675 41.3425 113.488 41.3931 112.301 41.3425Z" fill="#0F6BB5"/>
<path d="M159.394 27.7557C159.015 26.946 158.282 26.3388 157.423 26.0352C156.236 25.605 154.947 25.5797 153.684 25.5544C151.637 25.5544 149.566 25.5544 147.519 25.5544C146.155 25.605 144.69 25.7063 143.528 26.4906C142.719 27.0219 142.264 27.9581 142.088 28.8943C141.784 30.4124 141.961 31.9558 141.911 33.4739C141.961 35.0173 141.784 36.586 142.113 38.1294C142.315 39.1161 142.871 40.0776 143.755 40.5836C144.892 41.2162 146.256 41.3427 147.519 41.3427C149.945 41.3427 152.395 41.3427 154.821 41.3427C156.286 41.2668 157.979 41.0391 158.989 39.7993C159.848 38.7366 159.848 37.3197 160 36.0293V30.969C159.848 29.9063 159.899 28.7678 159.394 27.7557ZM155.983 37.674C155.553 38.2053 154.821 38.3065 154.189 38.3318C152.016 38.3318 149.869 38.3318 147.696 38.3318C147.065 38.3065 146.382 38.2559 145.902 37.8005C145.473 37.3197 145.448 36.6113 145.448 36.004C145.473 34.1823 145.422 32.3353 145.473 30.5136C145.448 29.7292 145.953 28.8943 146.787 28.7931C147.368 28.6666 147.949 28.6919 148.53 28.6919C150.349 28.6919 152.193 28.6919 154.012 28.6919C154.644 28.6919 155.351 28.7678 155.857 29.2232C156.261 29.6533 156.387 30.2859 156.387 30.8678C156.387 32.3606 156.387 33.8534 156.387 35.3462C156.387 36.1052 156.463 36.9908 155.983 37.674Z" fill="#0F6BB5"/>
<path d="M80.4675 26.5412C79.4317 24.7701 76.4505 24.7954 75.4399 26.5918C72.3576 31.5256 69.2501 36.4341 66.1678 41.368C67.5069 41.4186 68.8711 41.3427 70.2102 41.3933C71.0186 40.2041 71.726 38.9643 72.484 37.7498C76.0968 37.7498 79.7096 37.7498 83.3224 37.7498C84.0804 38.9643 84.8383 40.1788 85.6215 41.368C86.9858 41.3427 88.3501 41.368 89.7144 41.3427C86.6574 36.4088 83.5751 31.475 80.4675 26.5412ZM74.1767 34.9919C75.4399 32.9678 76.6273 30.8931 77.9664 28.8942C79.1791 30.9437 80.4423 32.9678 81.6802 34.9919C79.1791 34.9919 76.6779 34.9919 74.1767 34.9919Z" fill="#0F6BB5"/>
<path d="M48.6089 47.5413C49.1647 47.2376 49.7963 47.3641 50.4027 47.3388C51.8428 47.3641 53.2576 47.2882 54.6977 47.3894C54.6471 47.6931 54.6471 48.0726 54.3187 48.1991C53.6871 48.5027 52.9797 48.275 52.3228 48.3762C52.3481 49.3883 52.3733 50.375 52.3228 51.3871C52.1965 52.0955 51.3122 51.9943 50.7564 52.0196C50.7564 50.7799 50.7564 49.5654 50.7564 48.3509C49.9732 48.3762 49.1647 48.3509 48.3815 48.3509C48.4068 48.0726 48.3815 47.7437 48.6089 47.5413Z" fill="#0F6BB5"/>
<path d="M60.2558 48.3006C60.2558 47.6427 60.9885 47.3644 61.519 47.3391C62.7317 47.3391 63.9697 47.3391 65.1823 47.3391C65.7634 47.3391 66.4456 47.668 66.4456 48.3259C64.9044 48.3259 63.3633 48.3512 61.8222 48.3259C61.7969 48.6042 61.7969 48.8825 61.7969 49.1608C62.757 49.1608 63.717 49.1608 64.6771 49.1608C64.7023 49.4898 64.7023 49.844 64.7023 50.1729C63.7423 50.1729 62.7822 50.1982 61.8222 50.1729C61.7969 50.4512 61.7969 50.7295 61.7969 51.0079C63.338 51.0332 64.8792 50.9825 66.4456 51.0332C66.3698 51.5898 65.8898 51.9693 65.3339 51.9693C64.1212 52.0452 62.8833 51.9946 61.6706 51.9946C61.1148 52.0199 60.4579 51.7922 60.2558 51.2356C60.2305 50.2741 60.2558 49.2873 60.2558 48.3006Z" fill="#0F6BB5"/>
<path d="M72.3069 47.7441C72.7364 47.3646 73.3175 47.314 73.8481 47.3393C74.985 47.3646 76.1219 47.2887 77.2588 47.3646C77.8651 47.3899 78.4715 47.9718 78.2441 48.6044C77.8904 49.0598 77.2588 49.2369 76.703 49.2116C76.703 48.908 76.703 48.6044 76.6777 48.3261C75.6671 48.3261 74.6565 48.3514 73.646 48.3261C73.5702 49.2116 73.6207 50.1225 73.6207 51.008C74.6313 51.008 75.6671 51.008 76.703 51.008C76.703 50.6791 76.703 50.3755 76.703 50.0466C77.2083 50.0466 77.7135 50.0466 78.2441 50.0466C78.2441 50.4514 78.2694 50.8815 78.2188 51.2864C78.0167 51.7671 77.4862 51.9695 77.0061 51.9948C75.844 52.0201 74.7071 51.9948 73.5449 52.0201C72.9891 52.0201 72.2059 51.8177 72.0796 51.1852C72.0038 50.4514 72.0543 49.7177 72.029 48.9839C72.029 48.5538 71.9532 48.073 72.3069 47.7441Z" fill="#0F6BB5"/>
<path d="M83.853 48.3007C83.9287 47.567 84.7877 47.3646 85.3941 47.314C85.4699 47.9465 85.3941 48.579 85.4446 49.1863C86.4552 49.161 87.4657 49.1863 88.5016 49.1863C88.5016 48.579 88.5016 47.9718 88.5016 47.3393C89.0321 47.3393 89.5627 47.3393 90.0932 47.3646C90.0427 48.908 90.0932 50.4514 90.0679 51.9948C89.5374 51.9948 89.0068 51.9948 88.4763 51.9948C88.4763 51.3875 88.4763 50.7803 88.451 50.1478C87.4152 50.1984 86.4046 50.1225 85.3688 50.1984C85.3941 50.8056 85.3941 51.4128 85.3688 51.9948C84.8383 51.9948 84.333 51.9948 83.8024 51.9948C83.853 50.7803 83.8024 49.5405 83.853 48.3007Z" fill="#0F6BB5"/>
<path d="M95.6514 47.3391C96.2324 47.3644 96.864 47.3897 97.3441 47.7692C98.1525 48.4271 98.8094 49.2367 99.6684 49.8693C99.6936 49.262 99.6431 48.6295 99.6936 48.0223C99.8958 47.415 100.654 47.3897 101.184 47.3391C101.235 48.8825 101.184 50.4512 101.21 51.9946C100.628 52.0199 99.9968 51.9693 99.5421 51.5898C98.7336 50.9066 98.0262 50.1223 97.2177 49.4645C97.2177 50.2994 97.2177 51.1344 97.2177 51.9693C96.6872 51.9693 96.1566 51.9693 95.6261 51.9693C95.6514 50.4259 95.6261 48.8825 95.6514 47.3391Z" fill="#0F6BB5"/>
<path d="M118.617 47.3391C119.173 47.3644 119.905 47.415 120.158 48.0223C120.259 49.0343 120.133 50.0464 120.209 51.0332C121.27 51.0332 122.356 51.0078 123.417 51.0332C123.341 51.691 122.684 52.0199 122.078 52.0199C121.244 52.0199 120.411 52.0705 119.577 51.9693C119.097 51.9187 118.592 51.5392 118.592 51.0078C118.592 49.7681 118.592 48.5536 118.617 47.3391Z" fill="#0F6BB5"/>
<path d="M140.774 48.1997C140.925 47.5924 141.633 47.3647 142.189 47.3647C143.401 47.3647 144.614 47.3394 145.827 47.39C146.382 47.4153 147.014 47.7189 146.964 48.3768C145.422 48.3768 143.881 48.3768 142.34 48.3768C142.315 49.2623 142.34 50.1479 142.34 51.0335C143.351 51.0335 144.387 51.0335 145.397 51.0335C145.397 50.7551 145.397 50.5021 145.397 50.2238C144.715 50.2744 143.679 50.072 143.679 49.2117C144.766 49.237 145.877 49.1611 146.964 49.2623C146.888 49.9455 147.014 50.6539 146.888 51.3371C146.736 51.8431 146.155 52.0202 145.675 52.0455C144.563 52.0708 143.477 52.0455 142.365 52.0708C141.835 52.0708 141.203 51.9949 140.875 51.4889C140.673 51.0841 140.748 50.6286 140.748 50.1985C140.774 49.4901 140.698 48.8322 140.774 48.1997Z" fill="#0F6BB5"/>
<path d="M152.572 47.3393C153.103 47.3899 153.76 47.3899 154.088 47.8706C154.215 48.3007 154.139 48.7309 154.164 49.161C155.175 49.161 156.185 49.161 157.196 49.161C157.196 48.5537 157.196 47.9465 157.196 47.314C157.701 47.314 158.232 47.314 158.737 47.314C158.787 48.5284 158.737 49.7429 158.762 50.9574C158.838 51.5646 158.206 51.9442 157.676 51.9695C156.438 52.0454 155.2 51.9948 153.962 51.9948C153.861 51.4381 154.366 51.0586 154.871 51.008C155.629 50.9321 156.413 51.008 157.17 50.9827C157.17 50.7044 157.17 50.4261 157.145 50.1477C155.882 50.173 154.619 50.1477 153.356 50.1477C153.027 50.1477 152.572 49.9706 152.547 49.5911C152.547 48.8827 152.572 48.0983 152.572 47.3393Z" fill="#0F6BB5"/>
<path d="M113.008 48.1485C112.907 47.516 112.149 47.3388 111.619 47.3388C110.406 47.3388 109.193 47.3135 107.981 47.3641C107.45 47.3894 106.844 47.7184 106.844 48.3003C106.818 49.1859 106.844 50.0967 106.844 50.9823C106.844 51.6401 107.551 52.0196 108.132 51.9943C109.345 52.0196 110.558 52.0196 111.77 51.9943C112.301 51.9943 112.983 51.716 113.008 51.1088C113.033 50.122 113.033 49.1353 113.008 48.1485ZM111.442 51.0076C110.431 51.0076 109.421 51.0076 108.41 51.0076C108.41 50.122 108.385 49.2365 108.41 48.3509C109.421 48.3509 110.406 48.3509 111.417 48.3509C111.442 49.2365 111.442 50.122 111.442 51.0076Z" fill="#0F6BB5"/>
<path d="M135.19 50.6535C135.165 49.8438 135.216 49.0089 135.165 48.1992C135.115 47.592 134.432 47.3896 133.902 47.3643C132.639 47.3643 131.375 47.339 130.112 47.3643C129.607 47.4149 129.051 47.6932 128.975 48.2498L128.95 50.4764C128.95 50.9065 128.925 51.4379 129.354 51.6909C130.011 52.1463 130.82 51.9692 131.577 51.9945C132.563 51.9439 133.548 52.0957 134.508 51.8933C135.039 51.7668 135.241 51.1595 135.19 50.6535ZM133.599 51.0077C132.588 51.0077 131.577 51.0077 130.567 51.0077C130.567 50.1222 130.567 49.2366 130.567 48.3257C131.577 48.351 132.563 48.3257 133.573 48.3257C133.624 49.2366 133.599 50.1222 133.599 51.0077Z" fill="#0F6BB5"/>
<path d="M18.1652 21H19.0494C19.58 21.1518 20.06 21.4554 20.439 21.8603C22.9907 24.4663 25.6182 26.9965 28.1446 29.6279C26.3761 29.6279 24.5823 29.6026 22.8138 29.6279C21.1211 29.7291 19.2768 29.9568 17.9883 31.1713C16.8009 32.3098 16.4977 34.0557 16.4472 35.6497C16.4472 38.2557 16.4472 40.8871 16.4472 43.4932C16.4977 45.0113 16.7756 46.6559 17.8367 47.7945C18.822 48.8318 20.2621 49.2114 21.6264 49.3885C23.7991 49.6415 25.9972 49.4391 28.1699 49.5403C25.5677 52.1464 22.9654 54.7524 20.3632 57.3585C19.9842 57.7633 19.4789 58.0163 18.9484 58.1429H18.1904C17.6851 58.0417 17.2051 57.8139 16.8261 57.4344C11.4448 52.0452 6.08874 46.6812 0.707406 41.2919C0.328438 40.9377 0.101058 40.457 0 39.951V39.1919C0.0757935 38.7365 0.277909 38.281 0.606348 37.9521C1.99589 36.5605 5.02763 33.4737 5.20448 33.4484C8.03411 33.3219 10.9901 33.7773 13.6934 32.7653C15.0576 32.2845 16.0177 31.0448 16.3714 29.6532C13.8955 29.6532 11.3943 29.6532 8.91836 29.6532C11.4953 26.9965 14.1228 24.4157 16.7251 21.8097C17.1293 21.3542 17.6346 21.1012 18.1652 21Z" fill="#0F6BB5"/>
<path d="M21.4242 34.1315C22.0558 33.5243 22.9653 33.4231 23.7991 33.4231C26.5276 33.4231 29.2562 33.4231 31.9848 33.4231C33.4248 34.8653 34.8649 36.3328 36.3302 37.775C37.3408 38.6605 37.3914 40.3811 36.4313 41.2919C34.9407 42.7847 33.4501 44.3028 31.9342 45.7956C29.332 45.7956 26.7298 45.7956 24.1275 45.7956C23.2433 45.745 22.2327 45.7703 21.5 45.1378C20.9442 44.6064 20.8179 43.7715 20.7926 43.0124C20.7926 40.7353 20.7926 38.4581 20.7926 36.1557C20.8179 35.4472 20.9442 34.6629 21.4242 34.1315Z" fill="#0F6BB5"/>
<path d="M33.6523 55.1573C33.4502 54.5248 32.8944 54.0946 32.4649 53.6392C32.0354 53.2344 31.5806 52.703 30.949 52.6018C30.2668 52.5765 29.8374 53.1838 29.3826 53.5886C28.9784 54.044 28.4478 54.3983 28.1952 54.9802C27.993 55.6127 28.4225 56.1694 28.8268 56.5742C29.4079 57.1308 29.9131 57.7887 30.6711 58.1176H31.2016C31.909 57.7887 32.3891 57.1561 32.9449 56.6248C33.3491 56.2706 33.8291 55.7645 33.6523 55.1573ZM32.5912 56.2706C32.1364 56.7007 31.7322 57.2067 31.2016 57.5357C30.7974 57.7381 30.4184 57.3585 30.1405 57.1055C29.6605 56.6248 29.1299 56.1947 28.8015 55.6127C28.5489 55.1573 29.0036 54.7525 29.3068 54.4489C29.7868 54.044 30.1405 53.4874 30.7216 53.1838C31.2269 53.0573 31.6059 53.5127 31.9343 53.8416C32.3133 54.2717 32.8186 54.626 33.0965 55.1573C33.2733 55.6127 32.8438 55.967 32.5912 56.2706Z" fill="#0F6BB5"/>
<path d="M30.9743 55.7392C31.3786 55.6886 32.0607 55.8657 32.187 55.309C32.2628 54.9548 32.2375 54.3982 31.7828 54.3223C31.0754 54.2211 30.3427 54.297 29.61 54.2717C29.61 55.0054 29.61 55.7392 29.61 56.4729C29.7364 56.4729 29.989 56.4729 30.1153 56.4729C30.1153 56.2199 30.1153 55.9922 30.1153 55.7392C30.7722 56.0934 31.4038 56.6753 32.2123 56.4729C31.8081 56.1946 31.3786 55.9669 30.9743 55.7392ZM30.1153 55.3596C30.1153 55.2078 30.1153 54.9042 30.1153 54.7524C30.6206 54.7524 31.1512 54.7271 31.6565 54.7777C31.6565 54.9295 31.6565 55.2078 31.6565 55.3343C31.1512 55.3596 30.6206 55.3596 30.1153 55.3596Z" fill="#0F6BB5"/>
</svg>
