<svg width="160" height="80" viewBox="0 0 160 80" fill="none" xmlns="http://www.w3.org/2000/svg">
<path d="M49.4706 21.3158C49.8815 21.4041 50.3218 21.4923 50.7328 21.61C52.6114 22.1395 53.9323 23.3456 54.901 24.993C55.8697 26.611 56.3687 28.4054 56.6916 30.2293C57.2199 33.1711 57.308 36.1423 57.1906 39.1134C57.1025 41.6728 56.809 44.1733 56.0458 46.6149C55.5468 48.2035 54.8423 49.6743 53.6388 50.8805C52.2005 52.3513 50.4393 52.9397 48.4432 52.9397C45.2143 52.9103 43.1009 51.2335 41.7506 48.4388C40.9287 46.7326 40.4884 44.9087 40.2242 43.026C39.7839 40.0842 39.7546 37.1425 39.9307 34.1713C40.0775 31.6119 40.4297 29.082 41.369 26.6698C41.7506 25.6696 42.2496 24.7577 42.9248 23.9045C44.0695 22.4631 45.5666 21.61 47.3865 21.3746C47.4452 21.3746 47.5039 21.404 47.5333 21.3158C48.2084 21.3158 48.8248 21.3158 49.4706 21.3158ZM43.2183 36.5835C43.2183 39.9665 43.3357 41.8199 43.7467 44.085C43.9815 45.4971 44.3924 46.8797 45.1263 48.1446C46.682 50.7628 50.3806 50.7334 51.9363 48.2917C52.5527 47.3209 52.9343 46.2619 53.1985 45.144C53.7562 42.7612 53.903 40.3196 53.9323 37.8779C53.9617 35.7304 53.903 33.6123 53.6388 31.4943C53.4627 30.0528 53.1985 28.6408 52.6408 27.2876C52.2298 26.2874 51.7015 25.3754 50.7915 24.7577C48.9129 23.4927 46.3885 24.081 45.1556 26.0814C44.4511 27.2287 44.0695 28.4937 43.8347 29.7881C43.3064 32.2297 43.2183 34.642 43.2183 36.5835Z" fill="white"/>
<path d="M28.248 21.3158C28.6003 21.4041 28.9525 21.4629 29.3048 21.5511C31.6824 22.1395 33.2088 23.6692 34.0894 25.8755C34.559 27.0228 34.7352 28.2289 34.8232 29.4645C34.8232 29.6116 34.7939 29.6704 34.6471 29.6704C33.7371 29.6704 32.8565 29.6704 31.9466 29.6704C31.7411 29.6704 31.7411 29.5233 31.7411 29.4056C31.653 28.4643 31.4476 27.5229 31.066 26.6404C29.8918 24.0516 26.4575 23.2574 24.2559 25.0518C23.2286 25.9049 22.8176 27.0522 22.8763 28.3466C22.935 30.2882 24.0211 31.7002 25.4301 32.9063C26.7216 34.0242 28.1893 34.9067 29.5689 35.8775C30.8605 36.7894 32.1227 37.7896 33.1501 39.0546C34.6471 40.8785 35.2635 42.9965 35.2342 45.35C35.2048 46.4678 35.058 47.5563 34.6471 48.5859C33.9426 50.3509 32.7391 51.6453 30.9486 52.3219C29.0406 53.0574 27.0739 53.175 25.0778 52.6455C22.6121 51.9983 21.0858 50.3804 20.1758 48.0858C19.7355 46.9679 19.5594 45.7912 19.5007 44.5851C19.5007 44.3203 19.5594 44.2321 19.8236 44.2321C20.5868 44.2615 21.3793 44.2615 22.1425 44.2321C22.4654 44.2321 22.5828 44.3203 22.6121 44.6439C22.6415 45.5853 22.8176 46.4678 23.1992 47.3504C23.9624 49.086 25.3127 49.9685 27.1913 50.1156C28.1306 50.1744 29.0699 50.0862 29.9212 49.6155C31.2127 48.9095 31.8292 47.7622 32.0933 46.3502C32.5336 43.9673 31.6824 42.0552 29.9799 40.4666C28.5709 39.1429 26.9271 38.1132 25.3714 36.9659C24.1092 36.054 22.847 35.0832 21.849 33.8477C19.7649 31.2589 19.2658 28.376 20.528 25.2872C21.438 23.022 23.3166 21.8747 25.6649 21.4335C25.8704 21.4041 26.0759 21.4041 26.252 21.3158C26.8978 21.3158 27.5729 21.3158 28.248 21.3158Z" fill="white"/>
<path d="M153.764 24.6105C151.915 24.6105 150.036 24.6105 148.187 24.6105C147.453 24.6105 147.453 24.6105 147.453 25.3165C147.453 34.2889 147.453 43.2319 147.453 52.2042C147.453 52.469 147.423 52.5572 147.101 52.5278C146.191 52.4984 145.281 52.5278 144.371 52.5278C144.136 52.5278 144.106 52.469 144.106 52.2631C144.106 43.2024 144.106 34.1418 144.106 25.1106C144.106 25.0518 144.106 24.9929 144.106 24.9341C144.136 24.6988 144.048 24.6105 143.784 24.6105C142.257 24.6105 140.731 24.6105 139.175 24.6105C138.793 24.6105 138.441 24.6105 138.06 24.6105C137.825 24.6105 137.766 24.5223 137.766 24.3163C137.766 23.5515 137.766 22.7866 137.766 22.0218C137.766 21.8158 137.854 21.7276 138.03 21.757C138.118 21.757 138.206 21.757 138.294 21.757C143.285 21.757 148.275 21.757 153.294 21.757C153.441 21.757 153.558 21.7276 153.705 21.7276C153.764 22.669 153.764 23.6397 153.764 24.6105Z" fill="#FAAF1A"/>
<path d="M11.1642 21.3158C11.2817 21.5511 11.5458 21.4923 11.7513 21.5511C13.4245 22.0512 14.6573 23.0809 15.215 24.7577C15.8902 26.8169 15.5673 28.729 14.0702 30.3176C13.3951 31.0236 12.5439 31.4943 11.5752 31.7002C10.9588 31.8473 10.3423 31.9061 9.69657 31.8179C7.67117 31.5531 6.23285 30.5235 5.3816 28.6702C5.20547 28.2878 5.20547 27.8759 5 27.4935C5 26.7875 5 26.1109 5 25.4048C5.11741 25.3754 5.11741 25.2872 5.14677 25.1695C5.3816 24.3752 5.73384 23.6398 6.29156 23.022C6.99604 22.316 7.81794 21.7865 8.81596 21.5217C8.99208 21.4629 9.28562 21.5511 9.40303 21.3158C9.9901 21.3158 10.5772 21.3158 11.1642 21.3158ZM12.9255 26.5815C12.9842 24.993 11.7513 23.9045 10.2543 23.9045C8.7279 23.9045 7.61247 24.9342 7.55376 26.4639C7.49505 28.2878 8.81596 29.2585 10.313 29.2585C11.6926 29.2585 13.0135 28.1995 12.9255 26.5815Z" fill="#FAAF1A"/>
<path d="M39.7546 71.6199C39.4317 71.4728 39.0501 71.4434 38.7272 71.2963C38.2575 71.0904 37.8466 70.8256 37.5237 70.4138C37.2889 70.0902 37.3182 69.8254 37.5531 69.5901C37.7292 69.4136 37.8759 69.3842 38.0521 69.6489C38.8153 70.7668 40.371 71.1786 41.6038 70.6491C42.1616 70.3844 42.4551 69.9725 42.4845 69.3547C42.5138 68.7664 42.1909 68.384 41.6626 68.1192C41.1635 67.8544 40.6058 67.7368 40.0481 67.6191C39.7252 67.5308 39.373 67.4426 39.0501 67.3249C38.1988 66.9719 37.6411 66.413 37.5824 65.4422C37.5237 64.442 37.9934 63.7066 38.874 63.2947C40.1362 62.7064 41.369 62.824 42.5725 63.5595C42.8073 63.7066 43.0128 63.9125 43.1302 64.1478C43.2476 64.4126 43.1889 64.6479 42.9835 64.8244C42.8073 64.9715 42.6899 65.0009 42.5432 64.7656C41.8387 63.7948 40.4003 63.4418 39.3143 63.9713C38.6098 64.3243 38.3162 65.0009 38.5217 65.707C38.6391 66.0894 38.9327 66.2953 39.2849 66.4718C39.7839 66.6777 40.3123 66.7954 40.8113 66.9131C41.2516 67.0307 41.6919 67.1484 42.0735 67.3543C42.8954 67.7662 43.3651 68.4134 43.3357 69.3547C43.3357 70.3255 42.866 70.9727 42.0148 71.3846C41.6919 71.5316 41.369 71.5905 41.0461 71.6787C40.6352 71.6199 40.1949 71.6199 39.7546 71.6199Z" fill="white"/>
<path d="M109.91 36.2011C110.35 36.407 110.79 36.5247 111.201 36.7012C112.698 37.3778 113.784 38.4662 114.459 39.9959C115.281 41.8493 115.369 43.7908 115.105 45.7618C114.929 47.0856 114.518 48.3211 113.726 49.439C112.904 50.5569 111.788 51.2923 110.526 51.763C108.824 52.4102 107.033 52.5572 105.213 52.5278C103.276 52.5278 101.309 52.5278 99.3717 52.5278C99.1662 52.5278 99.1075 52.469 99.1075 52.2925C99.1075 51.9689 99.1075 51.6453 99.1075 51.3217C99.1075 41.6139 99.1075 31.8767 99.1075 22.1689C99.1075 21.757 99.1075 21.757 99.5184 21.757C102.219 21.757 104.89 21.6982 107.591 21.757C109.91 21.8159 111.876 22.6102 113.256 24.6105C113.96 25.6402 114.313 26.8169 114.489 28.0524C114.606 28.9644 114.606 29.9057 114.459 30.8177C114.283 31.9061 113.931 32.9357 113.285 33.8477C112.463 34.995 111.377 35.7304 110.056 36.1422C109.998 36.1128 109.968 36.1422 109.91 36.2011ZM102.483 43.732C102.483 45.6147 102.483 47.468 102.483 49.3507C102.483 49.6155 102.571 49.7037 102.835 49.7037C103.804 49.7037 104.773 49.7037 105.741 49.7037C106.769 49.6743 107.767 49.5861 108.765 49.2331C110.731 48.5565 111.553 47.0267 111.818 45.2911C111.964 44.3792 111.935 43.4378 111.818 42.5259C111.73 41.8198 111.553 41.1432 111.26 40.5255C110.409 38.7604 108.882 38.0544 107.033 37.8485C105.624 37.7014 104.215 37.819 102.806 37.7602C102.542 37.7602 102.483 37.8485 102.483 38.1132C102.483 39.9959 102.483 41.8493 102.483 43.732ZM102.483 29.7586C102.483 31.3766 102.483 33.024 102.483 34.6419C102.483 34.8773 102.512 34.9655 102.777 34.9361C103.393 34.9067 104.039 34.9361 104.655 34.9361C105.947 34.9067 107.238 34.789 108.471 34.3184C109.733 33.8183 110.585 32.9063 110.937 31.6119C111.348 30.1411 111.348 28.6702 110.937 27.1993C110.702 26.3168 110.144 25.6402 109.323 25.2283C108.354 24.7282 107.326 24.6106 106.27 24.6106C105.096 24.6106 103.951 24.6106 102.777 24.6106C102.512 24.6106 102.454 24.6988 102.454 24.9341C102.483 26.5227 102.483 28.1407 102.483 29.7586Z" fill="#FAAF1A"/>
<path d="M120.389 37.113C120.389 32.112 120.389 27.111 120.389 22.1394C120.389 21.7276 120.389 21.7276 120.8 21.7276C125.232 21.7276 129.665 21.7276 134.097 21.7276C134.39 21.7276 134.508 21.8159 134.508 22.11C134.478 22.7866 134.508 23.4632 134.508 24.1693C134.508 24.6105 134.508 24.6105 134.097 24.6105C131.162 24.6105 128.226 24.6105 125.291 24.6105C124.88 24.6105 124.498 24.6399 124.087 24.6105C123.853 24.6105 123.794 24.6988 123.794 24.9047C123.794 27.3169 123.794 29.7292 123.794 32.1708C123.794 33.024 123.823 33.8476 123.794 34.7008C123.794 34.9949 123.882 35.0832 124.175 35.0832C126.582 35.0832 128.96 35.0832 131.367 35.0832C131.631 35.0832 131.719 35.142 131.719 35.4362C131.69 36.1422 131.69 36.8482 131.719 37.5543C131.719 37.819 131.661 37.9367 131.367 37.9367C128.96 37.9367 126.582 37.9367 124.175 37.9073C123.882 37.9073 123.794 37.9661 123.794 38.2897C123.794 41.9669 123.794 45.6441 123.794 49.3213C123.794 49.7626 123.794 49.7626 124.234 49.7626C127.698 49.7626 131.191 49.7626 134.655 49.7626C134.948 49.7626 135.036 49.8508 135.007 50.145C134.978 50.851 134.978 51.5276 135.007 52.2336C135.007 52.5278 134.919 52.6161 134.655 52.6161C130.604 52.6161 126.553 52.6161 122.502 52.6161C121.915 52.6161 121.328 52.6161 120.741 52.6161C120.477 52.6161 120.418 52.5278 120.418 52.2631C120.389 47.1738 120.389 42.1434 120.389 37.113Z" fill="#FAAF1A"/>
<path d="M62.4155 37.113C62.4155 32.112 62.4155 27.111 62.4155 22.1394C62.4155 21.8453 62.4742 21.7276 62.7971 21.7276C66.9653 21.7276 71.1042 21.7276 75.2724 21.7276C75.5953 21.7276 75.654 21.8159 75.654 22.11C75.6246 22.816 75.6246 23.4927 75.654 24.1987C75.654 24.4929 75.5953 24.5811 75.3017 24.5811C72.249 24.5811 69.2256 24.5811 66.1728 24.5517C65.8499 24.5517 65.7618 24.6105 65.7618 24.9341C65.7618 28.1701 65.7618 31.4354 65.7618 34.6713C65.7618 34.9361 65.8205 34.9949 66.0847 34.9949C68.3449 34.9949 70.5758 34.9949 72.836 34.9949C73.1002 34.9949 73.1883 35.0538 73.1589 35.3185C73.1296 36.054 73.1589 36.8188 73.1589 37.5543C73.1589 37.7602 73.1002 37.819 72.8948 37.819C70.6345 37.819 68.3743 37.819 66.1141 37.819C65.8205 37.819 65.7618 37.9073 65.7618 38.172C65.7618 42.82 65.7618 47.468 65.7618 52.116C65.7618 52.4101 65.7031 52.4984 65.3802 52.4984C64.4996 52.469 63.6484 52.469 62.7678 52.4984C62.4742 52.4984 62.4155 52.4396 62.4155 52.1454C62.4155 47.1738 62.4155 42.1434 62.4155 37.113Z" fill="white"/>
<path d="M85.9277 38.525C85.9277 33.9947 85.9277 29.4644 85.9277 24.9341C85.9277 24.6105 85.8397 24.5517 85.5461 24.5517C83.6675 24.5517 81.8182 24.5517 79.9396 24.5517C79.6754 24.5517 79.6167 24.4634 79.6167 24.2281C79.6461 23.5221 79.6461 22.7866 79.6167 22.0806C79.6167 21.8159 79.6754 21.7276 79.9689 21.7276C83.0217 21.7276 86.1038 21.7276 89.1566 21.7276C91.182 21.7276 93.2074 21.7276 95.2328 21.7276C95.5263 21.7276 95.585 21.8159 95.585 22.0806C95.5557 22.816 95.5557 23.5221 95.585 24.2575C95.585 24.5223 95.497 24.5811 95.2621 24.5517C93.3835 24.5517 91.5342 24.5517 89.6556 24.5517C89.3327 24.5517 89.274 24.6399 89.274 24.9635C89.274 33.9359 89.274 42.9377 89.274 51.91C89.274 52.0571 89.274 52.1748 89.274 52.3219C89.274 52.469 89.2447 52.5278 89.0979 52.5278C88.0999 52.5278 87.1312 52.5278 86.1332 52.5278C85.9864 52.5278 85.9277 52.469 85.9277 52.3219C85.9277 52.1748 85.9277 51.9983 85.9277 51.8512C85.9277 47.4092 85.9277 42.9671 85.9277 38.525Z" fill="white"/>
<path d="M11.8101 43.4084C11.8101 46.3501 11.8101 49.3213 11.8101 52.2631C11.8101 52.5278 11.7514 52.6161 11.4578 52.6161C10.6066 52.5867 9.78467 52.5867 8.93341 52.6161C8.61053 52.6161 8.55182 52.5278 8.55182 52.2337C8.55182 48.5565 8.55182 44.8793 8.55182 41.2315C8.55182 39.0252 8.55182 36.8483 8.55182 34.6419C8.55182 34.3772 8.58117 34.2301 8.90406 34.3183C9.81402 34.5243 10.724 34.5243 11.6339 34.2595C11.7514 34.2301 11.7807 34.2595 11.7807 34.3772C11.7807 34.4654 11.7807 34.5243 11.7807 34.6125C11.8101 37.5249 11.8101 40.4666 11.8101 43.4084Z" fill="#FAAF1A"/>
<path d="M54.4607 68.531C55.0184 67.2955 55.5468 66.1482 56.0752 65.0009C56.31 64.5008 56.5155 64.0007 56.7503 63.4712C56.9558 63.0005 57.5135 62.824 57.9538 63.0594C58.1886 63.177 58.2473 63.383 58.2473 63.6183C58.2473 65.2363 58.2473 66.8836 58.2473 68.5016C58.2473 69.3547 58.2473 70.1784 58.2473 71.0315C58.2473 71.3845 58.1593 71.5022 57.8364 71.5022C57.5135 71.5022 57.3961 71.3845 57.3961 71.0315C57.3961 68.884 57.3961 66.7071 57.3961 64.5597C57.3961 64.442 57.3961 64.3243 57.3961 64.2066C57.2493 64.2949 57.22 64.4126 57.1906 64.5008C56.5448 65.9423 55.8697 67.3543 55.2239 68.7958C54.9891 69.2959 54.6956 69.443 54.2259 69.3547C53.903 69.2959 53.7856 69.0605 53.6682 68.8252C53.0518 67.472 52.4353 66.1482 51.8189 64.795C51.7309 64.6185 51.6428 64.442 51.5547 64.2066C51.4667 64.3832 51.496 64.5008 51.496 64.6479C51.496 66.766 51.496 68.884 51.496 71.0315C51.496 71.2963 51.496 71.5316 51.1438 71.561C50.7622 71.5905 50.6154 71.4728 50.6154 71.0609C50.6154 69.1488 50.6154 67.2661 50.6154 65.3539C50.6154 64.8244 50.6154 64.2949 50.6154 63.736C50.6154 63.2947 50.7328 63.1182 51.1144 63.0299C51.5841 62.9123 51.9657 63.0594 52.1124 63.383C52.494 64.2361 52.8756 65.0892 53.2572 65.9423C53.6682 66.766 54.0498 67.6191 54.4607 68.531Z" fill="white"/>
<path d="M112.698 71.5316C112.405 71.5316 112.258 71.3551 112.14 71.0903C111.876 70.4137 111.612 69.7077 111.377 69.0311C111.289 68.8252 111.201 68.7369 110.966 68.7369C109.968 68.7663 108.941 68.7663 107.943 68.7369C107.737 68.7369 107.62 68.7958 107.561 69.0017C107.297 69.7077 107.033 70.4137 106.769 71.1197C106.622 71.5316 106.328 71.6198 105.976 71.4728C105.771 71.3845 105.741 71.2962 105.829 71.0903C106.475 69.4724 107.092 67.825 107.737 66.1776C108.09 65.2656 108.442 64.3831 108.765 63.4712C108.941 63.0593 109.029 62.9711 109.499 62.9711C109.998 62.9711 110.086 63.0299 110.262 63.4712C111.231 65.9717 112.199 68.4722 113.138 70.9432C113.256 71.3551 113.109 71.5316 112.698 71.5316ZM109.469 64.0007C108.97 65.2951 108.501 66.5306 108.031 67.7367C107.943 67.9426 108.06 67.9132 108.178 67.9132C109.029 67.9132 109.88 67.9132 110.732 67.9132C110.966 67.9132 110.937 67.825 110.878 67.6779C110.555 66.8836 110.262 66.0893 109.968 65.2657C109.792 64.8832 109.645 64.4714 109.469 64.0007Z" fill="white"/>
<path d="M61.5643 67.3249C61.5643 66.1188 61.5643 64.8833 61.5643 63.6772C61.5643 63.2065 61.711 63.03 62.1807 63.0594C63.12 63.0888 64.0593 63.0006 64.9693 63.1182C66.1434 63.2653 66.9653 63.8831 67.2002 64.8539C67.5524 66.413 66.9947 67.8839 64.9106 68.1781C64.3529 68.2663 63.7658 68.2369 63.2081 68.2369C62.4449 68.2369 62.4449 68.2369 62.4449 69.0017C62.4449 69.6783 62.4449 70.3549 62.4449 71.0315C62.4449 71.2963 62.3862 71.5316 62.0633 71.5611C61.6817 71.6199 61.5349 71.4728 61.5349 71.0904V71.061C61.5643 69.796 61.5643 68.5605 61.5643 67.3249ZM62.4742 65.6481C62.4742 66.1482 62.4742 66.6778 62.4742 67.1779C62.4742 67.2955 62.4742 67.4132 62.6504 67.3838C63.4135 67.3544 64.1767 67.4426 64.9399 67.3249C65.8792 67.1484 66.4076 66.5307 66.4076 65.6187C66.4076 64.6774 65.8792 64.089 64.9399 63.9125C64.1767 63.7948 63.4429 63.8831 62.6797 63.8537C62.5036 63.8537 62.5036 63.9419 62.5036 64.0596C62.4742 64.5891 62.4742 65.1186 62.4742 65.6481Z" fill="white"/>
<path d="M90.0079 67.3249C90.0079 66.0894 90.0079 64.8539 90.0079 63.6477C90.0079 63.2359 90.184 63.0594 90.5949 63.0594C91.5342 63.0888 92.4735 63.0006 93.4129 63.1182C95.1447 63.3241 96.1134 64.7362 95.6437 66.413C95.4089 67.2955 94.7925 67.7956 93.9706 68.031C93.2074 68.2663 92.4442 68.2075 91.6516 68.2075C90.8885 68.2075 90.8885 68.2075 90.8885 68.9723C90.8885 69.6783 90.8885 70.3549 90.8885 71.061C90.8885 71.414 90.7417 71.5611 90.3894 71.5611C90.0959 71.5611 89.9785 71.3846 90.0079 71.1198C90.0079 69.8254 90.0079 68.5899 90.0079 67.3249ZM90.9178 65.5893C90.9178 66.1188 90.9178 66.6483 90.9178 67.1779C90.9178 67.2955 90.8885 67.4132 91.0939 67.4132C91.8865 67.3838 92.679 67.472 93.4422 67.3249C94.3815 67.1484 94.8512 66.5601 94.8512 65.5305C94.8512 64.6479 94.3228 64.0596 93.4129 63.9125C92.6497 63.7948 91.8571 63.8831 91.0939 63.8537C90.9178 63.8537 90.9472 63.9419 90.9472 64.0596C90.9178 64.5891 90.9178 65.0892 90.9178 65.5893Z" fill="white"/>
<path d="M118.305 67.1484C118.921 66.207 119.479 65.2951 120.066 64.4125C120.301 64.0301 120.536 63.6771 120.77 63.2947C120.976 62.9711 121.269 62.9122 121.563 63.1182C121.739 63.2358 121.768 63.3829 121.622 63.5594C120.77 64.8832 119.919 66.207 119.039 67.5014C118.833 67.825 118.716 68.1486 118.745 68.531C118.774 69.3547 118.745 70.1784 118.745 71.0315C118.745 71.4139 118.657 71.5316 118.305 71.5316C117.953 71.5316 117.835 71.4139 117.835 71.0315C117.835 70.1195 117.835 69.1782 117.835 68.2662C117.835 68.0603 117.776 67.9132 117.688 67.7367C116.808 66.3835 115.898 65.0009 115.017 63.6477C114.929 63.5006 114.753 63.3829 114.958 63.177C115.135 63.0005 115.34 62.9417 115.604 63.0593C115.751 63.1182 115.81 63.2358 115.898 63.3829C116.661 64.5891 117.483 65.854 118.305 67.1484Z" fill="white"/>
<path d="M80.6735 67.1189C81.466 65.854 82.2586 64.6479 83.0217 63.4123C83.1098 63.2947 83.1685 63.1476 83.2859 63.0593C83.5208 62.8828 83.873 62.9711 84.0198 63.2064C84.1078 63.3535 84.0198 63.4123 83.9611 63.5006C83.0511 64.9126 82.1411 66.2953 81.2312 67.7073C81.1138 67.8838 81.0844 68.0309 81.0844 68.2368C81.0844 69.1488 81.0844 70.0901 81.0844 71.0021C81.0844 71.3845 80.967 71.5022 80.5854 71.4728C80.2625 71.4433 80.1744 71.3551 80.1744 71.0021C80.1744 70.0607 80.1744 69.1193 80.1744 68.178C80.1744 68.0015 80.1451 67.8838 80.057 67.7367C79.1471 66.3541 78.2665 65.0009 77.3859 63.6183C77.2684 63.4417 77.0923 63.2652 77.3565 63.0593C77.5913 62.8828 77.9142 62.9122 78.0903 63.1182C78.1491 63.177 78.1784 63.2652 78.2371 63.3241C79.0003 64.5008 79.7635 65.7069 80.4973 66.8836C80.5561 67.0013 80.5854 67.0307 80.6735 67.1189Z" fill="white"/>
<path d="M98.4617 67.1778C98.4617 65.9423 98.4617 64.7067 98.4617 63.5006C98.4617 63.1182 98.5791 63.0005 98.902 63.0005C99.2249 63.0005 99.3423 63.1182 99.3423 63.4418C99.3423 63.7654 99.3423 64.1184 99.3423 64.442C99.3423 66.4129 99.3423 68.3839 99.3423 70.3255C99.3423 70.5608 99.401 70.6491 99.6652 70.6491C100.869 70.6491 102.102 70.6491 103.305 70.6491C103.569 70.6491 103.775 70.6785 103.804 71.0021C103.833 71.3257 103.687 71.4728 103.305 71.5022C102.63 71.5022 101.955 71.5022 101.28 71.5022C100.575 71.5022 99.9 71.5022 99.1955 71.5022C98.5791 71.5022 98.4323 71.3551 98.4323 70.7373C98.4617 69.5312 98.4617 68.3545 98.4617 67.1778Z" fill="white"/>
<path d="M70.0474 67.1778C70.0474 65.9717 70.0474 64.7361 70.0474 63.53C70.0474 63.1182 70.1355 63.0005 70.4877 63.0005C70.84 63.0005 70.9574 63.1182 70.9574 63.53C70.9574 65.7952 70.9574 68.0603 70.9574 70.2961C70.9574 70.5902 71.0454 70.6491 71.3096 70.6491C72.5131 70.6491 73.7166 70.6491 74.9201 70.6491C75.2723 70.6491 75.4191 70.7962 75.3898 71.1198C75.3604 71.4139 75.1549 71.5022 74.8908 71.5022C74.333 71.5022 73.746 71.5022 73.1883 71.5022C72.3664 71.5022 71.5445 71.5022 70.6932 71.5022C70.1942 71.5022 70.0181 71.3551 70.0181 70.855C70.0474 69.6195 70.0474 68.3839 70.0474 67.1778Z" fill="white"/>
<path d="M46.3298 67.2661C46.3298 66.0011 46.3298 64.7362 46.3298 63.4712C46.3298 63.0888 46.4766 62.9417 46.8288 62.9711C47.0637 63.0005 47.1811 63.1182 47.2104 63.3535C47.2104 63.4418 47.2104 63.5301 47.2104 63.6183C47.2104 66.0894 47.2104 68.531 47.2104 71.0021C47.2104 71.414 47.093 71.5316 46.7701 71.5316C46.4179 71.5316 46.3005 71.414 46.3005 71.061C46.3298 69.796 46.3298 68.531 46.3298 67.2661Z" fill="white"/>
</svg>
