<svg version="1.2" baseProfile="tiny-ps" xmlns="http://www.w3.org/2000/svg" viewBox="0 0 512 512" width="512" height="512">
	<title>magnifying-glass-svg</title>
	<style>
		tspan { white-space:pre }
		.shp0 { fill: #8b8f96 } 
	</style>
	<g id="Layer">
		<path id="Layer" fill-rule="evenodd" class="shp0" d="M495 495C487 503 474.1 503 466.1 495L348.3 377.3C312.7 406.5 267.2 424 217.5 424C103.4 424 11 331.5 11 217.5C11 103.5 103.4 11 217.5 11C331.5 11 424 103.5 424 217.5C424 267.2 406.4 312.8 377.2 348.4L495 466.2C503 474.1 503 487.1 495 495ZM383 217.5C383 126.3 308.7 52 217.5 52C126.2 52 52 126.3 52 217.5C52 308.7 126.2 382.9 217.5 382.9C308.7 382.9 383 308.7 383 217.5Z" />
	</g>
</svg>