<svg width="160" height="68" viewBox="0 0 160 68" fill="none" xmlns="http://www.w3.org/2000/svg">
<path d="M155 6.42093V65.1709H5C5 47.1501 5 29.1293 5 11.1084C9.31875 9.79593 13.6031 8.35531 17.9594 7.19593C27.313 4.74244 36.8698 3.14214 46.5125 2.41468C53.4672 1.86704 60.4539 1.86182 67.4094 2.39905C68.9719 2.5178 70.5156 2.75218 72.2719 2.9553C71.8313 3.46468 71.5781 3.72405 71.3625 4.01155C70.1938 5.55531 70.425 6.78968 72.0813 7.76156C72.705 8.12377 73.3702 8.40918 74.0625 8.61156C77.3375 9.54906 80.7094 9.83968 84.0938 9.77406C87.0031 9.71468 89.9094 9.46156 92.8125 9.25843C100.5 8.71156 108.125 7.69593 115.625 5.88655C125.794 3.41468 136 3.17405 146.284 4.81155C149.203 5.26156 152.097 5.87405 155 6.42093ZM18.475 29.2647L18.6844 29.2022C18.9031 29.5897 19.1313 29.9709 19.3375 30.3616C21.5938 34.6272 23.8188 38.9084 26.1188 43.1459C26.6358 44.104 27.3014 44.9742 28.0906 45.7241C29.2719 46.8272 30.7531 47.1522 32.275 46.4709C33.7969 45.7897 34.4031 44.4553 34.4094 42.8053C34.4281 38.3834 34.5 33.9616 34.5031 29.5397C34.5031 25.7897 34.4406 22.0397 34.4031 18.2897C34.4031 17.8959 34.4031 17.5022 34.4031 17.0741H27.5L27.1438 32.1334C26.7549 31.7752 26.4433 31.3414 26.2281 30.8584C24.6656 27.7522 23.125 24.6428 21.5406 21.5428C21.0495 20.5117 20.5007 19.5091 19.8969 18.5397C18.75 16.7491 16.3688 15.9897 14.2531 16.6303C12.0656 17.2897 11.2531 18.5053 11.25 21.1053C11.25 29.022 11.25 36.9324 11.25 44.8366C11.25 45.3366 11.2937 45.8366 11.3156 46.3053H18.475V29.2647ZM72.2531 46.7647C77.1813 47.0053 82.6812 42.9334 82.7437 36.1397C82.8125 30.3022 77.9281 25.4366 72.1875 25.4803C66.4469 25.5241 61.675 30.4803 61.7438 36.2897C61.7586 39.0695 62.8722 41.7305 64.8416 43.6924C66.8111 45.6542 69.4764 46.7575 72.2563 46.7616L72.2531 46.7647ZM58.4937 31.9991C56.4969 28.0866 53.5344 25.7491 49.2 25.5178C44.475 25.2772 40.2844 28.2522 38.6812 32.7772C37.1594 37.0678 38.7937 41.9866 42.4875 44.8709C46.55 48.0491 53.075 47.0084 56.5688 43.7584C58.0156 42.4116 59.2781 40.9459 59.6688 38.8616L55.4844 36.7491C54.2063 37.9584 53.1813 39.1647 51.9344 40.0616C49.0906 42.1053 46.0469 41.0928 44.8062 37.8209C43.7469 35.0334 45.0563 31.7241 47.6188 30.7428C49.0438 30.1928 50.0781 30.4303 51.0563 31.5866L46.0563 35.0241L48.5563 38.8522L58.4937 31.9991ZM102.5 26.2553C102.438 26.5815 102.396 26.9113 102.375 27.2428C102.403 31.1897 102.375 35.1397 102.5 39.0834C102.631 43.2397 105.725 46.4272 109.841 46.8397C115.706 47.4272 119.588 44.0272 119.691 38.1334C119.753 34.5459 119.722 30.9459 119.716 27.3647C119.69 26.9698 119.636 26.5772 119.556 26.1897H113.438C113.438 26.7772 113.438 27.2866 113.438 27.7959C113.438 30.8647 113.438 33.9334 113.438 37.0022C113.46 37.5241 113.436 38.047 113.366 38.5647C113.131 39.8366 112.163 40.6522 111 40.6272C109.838 40.6022 108.994 39.8491 108.772 38.6084C108.646 37.8389 108.585 37.0601 108.591 36.2803C108.569 33.4678 108.591 30.6553 108.591 27.8428C108.591 27.3397 108.591 26.8334 108.591 26.2522L102.5 26.2553ZM149.316 17.0366C147.906 17.0366 146.659 17.0178 145.416 17.0366C140.303 17.1209 137.575 19.8803 137.559 25.0209C137.541 31.6772 137.559 38.3334 137.559 44.9866C137.559 45.4366 137.616 45.8834 137.644 46.3397H144.094C144.094 45.7616 144.094 45.2553 144.094 44.7459C144.094 40.9959 144.094 37.2459 144.094 33.5147C144.094 32.0991 144.316 31.8959 145.716 31.8741C146.9 31.8553 148.084 31.8741 149.269 31.8741V25.7928H144.297C144.156 23.6053 144.637 23.0397 146.578 22.9803C147.491 22.9553 148.403 22.9803 149.316 22.9803V17.0366ZM85.0813 46.1147C88.0875 46.1147 90.9875 46.1491 93.8875 46.1147C96.7875 46.0803 98.3844 44.8116 99.1313 42.1616C99.9469 39.2678 99.1938 37.0522 96.7688 35.5522C95.625 34.8459 94.375 34.3178 93.1906 33.6772C92.6281 33.3647 91.7469 33.2428 91.8969 32.3584C92.0594 31.3897 92.9594 31.3553 93.7344 31.2678C94.0466 31.2507 94.3596 31.2507 94.6719 31.2678H98.0125V26.1053C95.5594 26.1053 93.2219 26.0366 90.8844 26.1241C88.2031 26.2209 85.8625 27.9272 85.4344 30.2147C84.9281 32.9209 85.1656 35.3178 88.1437 37.0522C89.4219 37.7991 90.9313 38.1491 92.325 38.7053C92.9313 38.9459 93.7906 39.0834 93.6938 39.9553C93.5875 40.9272 92.7188 40.8616 91.9844 40.8616H85.0813V46.1147ZM134.822 31.9334V26.2053C132.5 25.7491 130.837 26.7616 129.312 28.5303L129.103 26.0616H123.237V46.3366H129.772C129.772 45.8522 129.772 45.4491 129.772 45.0459C129.825 41.7209 129.869 38.3928 129.941 35.0678C129.975 33.5397 130.878 32.6991 132.294 32.3803C133.103 32.2022 133.928 32.0897 134.822 31.9334Z" fill="#DE018A"/>
<path d="M18.475 29.2645V46.3051H11.3156C11.2937 45.8364 11.25 45.3364 11.25 44.8364C11.25 36.9197 11.25 29.0093 11.25 21.1051C11.25 18.4926 12.0625 17.2895 14.2531 16.6301C16.3719 16.0051 18.7375 16.7489 19.9125 18.5395C20.5183 19.5078 21.0692 20.5094 21.5625 21.5395C23.125 24.6395 24.6875 27.752 26.25 30.8551C26.4652 31.3381 26.7768 31.7719 27.1656 32.1301L27.5 17.0895H34.4062C34.4062 17.5208 34.4062 17.9145 34.4062 18.3051C34.4406 22.0551 34.5062 25.8051 34.5062 29.5551C34.5062 33.977 34.4313 38.3989 34.4125 42.8208C34.4125 44.4739 33.8188 45.7926 32.2781 46.4864C30.7375 47.1801 29.275 46.8458 28.0938 45.7395C27.3045 44.9896 26.639 44.1195 26.1219 43.1614C23.8219 38.9208 21.5969 34.6426 19.3406 30.377C19.1344 29.9864 18.9062 29.602 18.6875 29.2176L18.475 29.2645Z" fill="#FEFCFD"/>
<path d="M72.2562 46.7612C69.4754 46.7588 66.8084 45.6562 64.8376 43.6942C62.8668 41.7322 61.7524 39.0702 61.7375 36.2893C61.6687 30.4925 66.4781 25.5175 72.1812 25.48C77.8844 25.4425 82.8062 30.3018 82.7437 36.1331C82.6844 42.9362 77.1875 46.9987 72.2562 46.7612ZM72.2937 31.7331C70.0375 31.7331 68.1437 33.7081 68.125 36.0831C68.1031 38.6112 69.9219 40.6237 72.2437 40.6456C74.4781 40.6643 76.5344 38.4581 76.475 36.1237C76.4156 33.7893 74.4937 31.7331 72.2937 31.7331Z" fill="#FEFCFD"/>
<path d="M58.4938 31.9988L48.5688 38.8488L46.0688 35.0207L51.0688 31.5832C50.0781 30.43 49.0438 30.1894 47.6313 30.7394C45.0813 31.7238 43.7719 35.03 44.8188 37.8175C46.0688 41.0863 49.1062 42.1019 51.9469 40.0582C53.1969 39.1613 54.2188 37.955 55.4969 36.7457L59.6875 38.8457C59.2969 40.9238 58.0344 42.3957 56.5875 43.7425C53.0781 46.9988 46.5625 48.0363 42.5 44.8582C38.8031 41.9738 37.1875 37.0457 38.6937 32.7644C40.2969 28.2425 44.4875 25.2644 49.2125 25.505C53.5375 25.7269 56.5 28.0738 58.4938 31.9988Z" fill="#FEFCFD"/>
<path d="M102.5 26.2551H108.581C108.581 26.8395 108.581 27.3426 108.581 27.8458C108.581 30.6583 108.581 33.4708 108.581 36.2833C108.576 37.063 108.636 37.8419 108.763 38.6114C108.984 39.8614 109.872 40.6051 110.991 40.6301C112.109 40.6551 113.125 39.8395 113.356 38.5676C113.427 38.05 113.451 37.5271 113.428 37.0051C113.428 33.9364 113.428 30.8676 113.428 27.7989C113.428 27.2895 113.428 26.7801 113.428 26.1926H119.544C119.624 26.5802 119.677 26.9728 119.703 27.3676C119.703 30.9583 119.738 34.5551 119.678 38.1364C119.578 44.027 115.694 47.4301 109.828 46.8426C105.719 46.427 102.628 43.2489 102.5 39.0833C102.375 35.1395 102.403 31.1895 102.375 27.2426C102.396 26.9112 102.438 26.5813 102.5 26.2551V26.2551Z" fill="#FEFCFD"/>
<path d="M149.316 17.0365V22.974C148.403 22.974 147.491 22.9552 146.578 22.974C144.637 23.0271 144.156 23.5802 144.297 25.7865H149.275V31.874C148.091 31.874 146.906 31.874 145.722 31.874C144.319 31.8959 144.106 32.0959 144.1 33.5146C144.084 37.2646 144.1 41.0146 144.1 44.7459C144.1 45.2552 144.1 45.7615 144.1 46.3396H137.644C137.616 45.8865 137.559 45.4365 137.559 44.9865C137.559 38.3302 137.541 31.674 137.559 25.0209C137.559 19.8802 140.303 17.124 145.416 17.0365C146.659 17.0209 147.906 17.0365 149.316 17.0365Z" fill="#FEFCFD"/>
<path d="M85.0813 46.1146V40.8489H91.9844C92.7188 40.8489 93.5875 40.9146 93.6938 39.9427C93.7875 39.0802 92.9313 38.9427 92.325 38.6927C90.9313 38.1364 89.425 37.7864 88.1438 37.0396C85.1656 35.3052 84.9281 32.9083 85.4344 30.202C85.8625 27.9145 88.2031 26.2114 90.8844 26.1114C93.2187 26.027 95.5719 26.0927 98.0125 26.0927V31.2489H94.6688C94.3565 31.2319 94.0435 31.2319 93.7313 31.2489C92.9563 31.3364 92.0594 31.3677 91.8938 32.3395C91.7438 33.2239 92.625 33.3552 93.1875 33.6583C94.3719 34.2833 95.625 34.8239 96.7656 35.5333C99.1906 37.0333 99.9437 39.2489 99.1281 42.1427C98.3812 44.7896 96.7625 46.0521 93.8844 46.0958C91.0063 46.1396 88.0906 46.1146 85.0813 46.1146Z" fill="#FEFCFD"/>
<path d="M134.822 31.9334C133.928 32.0896 133.103 32.2021 132.297 32.3834C130.872 32.6959 129.975 33.5428 129.944 35.0709C129.869 38.3959 129.828 41.724 129.775 45.049C129.775 45.4521 129.775 45.8584 129.775 46.3396H123.237V26.0615H129.103L129.316 28.5271C130.841 26.7584 132.494 25.7396 134.825 26.2021L134.822 31.9334Z" fill="#FEFCFD"/>
<path d="M72.2938 31.7334C74.4813 31.7334 76.4188 33.7521 76.475 36.124C76.5313 38.4959 74.475 40.6646 72.2438 40.6459C69.9219 40.624 68.1031 38.6115 68.125 36.0834C68.1469 33.7084 70.0375 31.7365 72.2938 31.7334Z" fill="#DE018A"/>
</svg>
