<svg width="160" height="80" viewBox="0 0 160 80" fill="none" xmlns="http://www.w3.org/2000/svg">
<path d="M38.4132 26.9911C38.4794 25.2538 35.5227 25.8354 35.0005 25.8879C34.0554 25.9817 33.1139 26.706 32.1725 26.721C31.3403 26.6587 30.5125 26.5446 29.6939 26.3795C32.5586 26.826 35.8794 25.6027 38.4206 24.3907C39.4797 23.8879 40.5204 24.4995 40.491 25.6928C40.4505 27.2651 40.171 28.7736 38.906 29.8805C38.7028 30.1399 38.5425 30.4314 38.4316 30.7436L39.5348 30.1582C39.6783 31.5992 38.9097 31.7305 37.902 32.147C37.7218 31.7455 37.7917 30.8937 36.5745 30.2032L38.4132 26.9911Z" fill="#EE2326"/>
<path d="M12.1787 30.1995C11.4542 30.5356 10.8989 31.1634 10.6452 31.9331C9.63756 31.5166 8.87265 31.3853 9.01239 29.9443L10.1156 30.5297C10.0047 30.2176 9.84446 29.926 9.64124 29.6667C8.37619 28.5409 8.0967 27.0399 8.05625 25.4789C8.02683 24.2856 9.06756 23.674 10.1267 24.1768C12.6678 25.3889 16.1945 26.6122 19.0556 26.1656C18.207 26.5181 17.2822 26.6359 16.3747 26.5071C15.448 26.3307 14.4882 25.7566 13.5467 25.6741C13.0209 25.6215 10.0642 25.0399 10.134 26.7773L12.1787 30.1995Z" fill="#EE2326"/>
<path d="M23.2987 48.7741C20.0589 48.958 17.9517 50.9018 17.8083 53.0444C18.1503 52.778 18.3709 52.3502 18.7166 52.1288C19.0623 51.9074 19.6066 51.5884 19.9486 51.8286C20.1802 51.99 19.9486 52.7292 20.0736 53.157C22.0558 54.3615 24.3983 54.2452 24.3432 52.8568C24.3432 53.915 24.9941 53.9 25.542 53.9075C26.6286 53.9563 27.6926 53.5806 28.5171 52.8568C28.2891 51.7948 28.5171 51.5547 29.4401 51.8887C29.7761 52.0756 30.0824 52.3135 30.3485 52.5941L30.9884 53.097C29.944 49.6372 27.2925 48.549 23.2987 48.7741Z" fill="#EE2326"/>
<path d="M19.9338 47.8961C21.1327 47.5208 22.3095 47.063 23.4752 46.5977C23.7015 46.4883 23.8704 46.2844 23.9386 46.0386C24.0121 45.6633 23.9386 45.2393 23.9607 44.8416C24.0539 44.3365 23.7281 43.8499 23.2331 43.7548C23.2305 43.7543 23.2278 43.7538 23.2252 43.7534C22.1265 43.4448 21.1606 42.7698 20.4818 41.8358C20.1738 41.3869 19.9885 40.8623 19.9448 40.3161C19.9721 39.78 20.0398 39.2468 20.1471 38.7213C19.2572 38.7213 19.0439 39.0628 18.8306 39.6332C18.5658 40.3836 19.4226 41.1642 18.0951 41.5694C18.6283 42.0272 19.2866 43.168 20.1324 43.8922C18.6614 44.2112 18.0767 43.0329 17.0985 42.5C17.389 44.2299 18.9593 44.4513 19.8897 45.3256L19.8124 45.4682L16.9661 44.744C17.7494 46.2638 19.3013 45.5133 20.2537 46.3163C19.338 46.9167 18.4959 46.5865 17.6574 46.4964C17.4614 46.5189 17.2716 46.5801 17.0985 46.6765C17.1881 46.8712 17.3128 47.0469 17.4662 47.1944C17.8524 47.4766 18.2758 47.7015 18.7239 47.8623C19.1166 47.9863 19.5351 47.9979 19.9338 47.8961Z" fill="#EE2326"/>
<path d="M27.1271 39.6484C27.0205 39.8398 27.1676 40.4401 26.2739 40.7741C25.6718 40.9227 25.0547 40.9982 24.4352 40.9993C22.4861 40.9993 21.5521 40.7216 21.5741 39.6484C21.2924 39.8129 21.096 40.0957 21.0372 40.4214C21.0372 41.048 21.1953 41.1719 21.3167 41.2807C21.5704 41.5209 22.681 41.5809 22.8649 41.5846C24.4609 41.6147 25.1082 41.5846 26.7005 41.5284C27.0174 41.5296 27.3167 41.3796 27.5096 41.1231C27.6755 40.863 27.6755 40.5276 27.5096 40.2675C27.4271 40.0355 27.2967 39.8244 27.1271 39.6484Z" fill="#EE2326"/>
<path d="M30.5619 35.8208C31.6063 35.2954 31.2239 34.3798 31.2202 34.0909C30.9296 34.1061 30.6413 34.1513 30.3597 34.226C30.0132 34.3946 29.7164 34.6535 29.4991 34.9765C29.5359 35.5318 29.8522 36.181 30.5619 35.8208Z" fill="#EE2326"/>
<path d="M31.6062 44.7515L28.8371 45.4494L28.7525 45.2881C29.6167 44.4213 31.2679 44.2899 31.3267 42.5713C30.4515 43.1567 29.8558 44.2149 28.4252 43.8659L30.9995 41.7233C29.8705 41.3893 29.8447 40.6351 29.7932 39.8771C29.7916 39.6749 29.7258 39.4787 29.6057 39.3179C29.2966 39.0266 28.9725 38.7523 28.6348 38.4962C28.5802 38.8578 28.5471 39.2224 28.5355 39.5881C28.5355 39.9859 28.6606 40.3836 28.6569 40.7777C28.6389 41.0331 28.5496 41.2779 28.3995 41.4831C27.649 42.5138 26.6295 43.3083 25.4575 43.7759C25.1539 43.8893 24.9163 44.1359 24.8102 44.4476C24.7596 44.9248 24.7461 45.4053 24.7698 45.8847C24.7725 46.2184 24.9754 46.5163 25.281 46.6352C26.4872 47.1043 27.6051 47.5508 28.7378 47.9561C29.0353 48.0693 29.3613 48.0785 29.6645 47.9824C30.1824 47.7601 30.6755 47.4821 31.1355 47.1531C31.3013 46.9839 31.4359 46.7856 31.5327 46.5677C31.3501 46.5281 31.164 46.5079 30.9774 46.5076C30.4184 46.4026 29.6351 46.4438 29.2637 46.0724C30.0801 45.7384 31.0546 45.9448 31.6062 44.7515Z" fill="#EE2326"/>
<path d="M17.1648 34.4924C17.1648 35.0065 17.1427 35.5806 17.9334 35.847C18.4004 36.0046 18.9778 35.3555 19.0109 34.8977C18.7756 34.5807 18.4548 34.3407 18.0878 34.2072C17.3523 33.9258 17.1758 33.8695 17.1648 34.4924Z" fill="#EE2326"/>
<path d="M12.1008 30.1995C12.1008 30.1995 9.29855 25.6965 13.4468 26.008L16.9036 26.8673C16.3798 27.0006 15.8379 27.0437 15.3002 26.9949C14.4985 26.8786 14.0315 26.4808 12.7922 26.6196C12.5088 26.6584 12.2368 26.7582 11.9941 26.9123C12.5384 27.205 14.4507 28.0381 14.4323 28.0943C14.219 28.0193 13.1415 27.7829 12.84 27.6778C13.0312 28.4808 12.6193 30.4922 14.1896 33.6818C14.6824 34.6874 15.7415 36.1884 16.6315 36.8301C17.5367 37.5264 18.703 37.7653 19.8014 37.4793C19.6428 37.2129 19.4414 36.9757 19.2057 36.7775C18.7584 36.5403 18.2906 36.3456 17.8083 36.1959C15.9327 35.5955 14.9325 34.0908 14.1308 32.4435C13.9175 32.0044 13.9947 31.4228 13.9359 30.905L14.197 30.8299C14.3588 31.1639 14.5243 31.4978 14.675 31.8393C14.8682 32.3819 15.3997 32.7197 15.9622 32.6573C17.5177 32.6573 19.0181 32.935 19.8713 34.5824C20.3053 35.4192 20.8275 36.2372 21.7101 36.6237C21.7836 36.5787 21.6512 35.6781 21.4968 35.2165C22.2323 34.9163 21.9344 34.4885 21.5483 34.0645C21.0224 33.4866 20.4891 32.9163 19.9338 32.3159C20.4965 32.1508 21.1952 31.7192 21.1842 31.6104H18.1429V31.5166C19.0292 31.3515 20.798 30.7098 20.7944 30.5522C19.3822 29.6666 17.7053 30.2408 16.1791 29.9818V29.7679C17.1537 29.5128 18.1282 29.2651 19.1027 28.9987C20.0773 28.7323 21.8976 27.9668 21.8755 27.873H17.8855C19.1432 27.2951 20.2501 26.462 21.7064 26.4921C23.2178 26.5221 24.7366 26.5896 26.2444 26.4921C27.9287 26.3645 29.2563 27.1787 30.7236 27.888H26.7151C26.6967 27.9968 28.5943 28.781 29.5652 29.0475C30.536 29.3139 31.4664 29.5503 32.4042 29.903C30.8744 30.2783 29.2195 29.6779 27.6713 30.691C28.5024 31.6517 29.6056 31.1901 30.6133 31.6104H27.3881C27.366 31.7192 28.0721 32.1808 28.6237 32.3609C28.0611 32.9725 27.5205 33.5804 26.9542 34.1696C26.5313 34.6161 26.5018 34.9876 27.0829 35.2353C26.9248 35.6743 26.7813 36.6162 26.8512 36.68C27.2165 36.425 27.5609 36.1402 27.8809 35.8282C28.2226 35.4484 28.5121 35.023 28.7414 34.5636C29.51 32.9838 30.9773 32.6874 32.4189 32.6874C33.342 32.6874 33.7575 32.3834 34.0149 31.5841C34.1335 31.3026 34.2724 31.0304 34.4305 30.7699C34.7982 31.708 34.504 32.3647 34.1473 33.1076C33.2059 35.0739 31.5915 36.0533 29.6571 36.6912C29.2264 36.838 28.8791 37.1678 28.7047 37.5956C29.1445 37.6574 29.5897 37.67 30.0322 37.6331C31.6797 37.2579 33.0735 36.4886 33.9966 34.9839C34.0885 34.83 34.3312 34.2334 34.4048 34.072C35.0111 32.6528 35.3708 31.1367 35.4675 29.5916C35.519 29.0175 35.5705 28.4433 35.6294 27.7379C35.1807 27.9818 34.6953 28.0756 34.1584 28.3608C34.8471 27.6505 35.7238 27.1602 36.6811 26.9498C36.6811 26.871 35.633 26.5746 35.1108 26.6346C34.1694 26.7285 33.2353 27.0099 32.2976 27.0099C32.078 27.0013 31.8616 26.9544 31.6577 26.8711L35.2395 25.9817C39.3877 25.6515 36.5855 30.1732 36.5855 30.1732C39.3032 27.5465 40.5131 24.2181 35.5742 25.5202C32.8639 26.2331 31.3524 26.3495 30.5434 26.3082H30.5213C30.5213 26.3082 25.5825 24.7809 18.9814 26.1656L18.3967 26.2932H18.3746C17.6391 26.3682 16.1056 26.2932 13.1084 25.5202C8.17324 24.2443 9.38681 27.584 12.1008 30.1995Z" fill="#EE2326"/>
<path d="M39.9614 40.8339C39.9311 40.7199 39.8159 40.6526 39.7042 40.6835C39.6141 40.7085 39.5511 40.7912 39.5495 40.8864C39.5128 41.5994 39.5275 42.3011 39.4686 42.9953C39.248 45.6633 38.564 48.1849 36.7914 50.2526C36.4875 50.5393 36.1314 50.7624 35.7433 50.9092C35.6365 50.9548 35.5137 50.9033 35.4691 50.7943C35.4456 50.737 35.4478 50.6721 35.4749 50.6165C36.0375 49.4533 36.6443 48.3088 37.1003 47.1043C37.5563 45.8997 37.8726 44.5864 38.2293 43.3143C38.2619 43.2009 38.1982 43.0821 38.0871 43.0489C38.0457 43.0365 38.0017 43.0375 37.9609 43.0516C37.6961 43.1454 37.3431 43.288 37.0672 43.3968C36.959 43.4387 36.838 43.3831 36.7969 43.2726C36.7809 43.2295 36.779 43.1822 36.7914 43.1379C37.1592 41.9109 38.2845 38.316 38.2845 38.316C38.2146 38.3948 37.549 39.3854 37.4975 39.4755C36.8981 40.6012 36.5414 41.0215 36.089 42.2185C35.8978 42.7214 35.7433 43.0816 35.6588 43.273C35.6198 43.358 35.6408 43.4591 35.7102 43.5206C36.659 44.3349 35.8573 45.8847 35.4528 46.3725C34.8972 47.0494 34.4964 47.8442 34.2797 48.699C34.2245 48.8754 34.1473 49.1231 34.0664 49.3857C34.0298 49.4978 33.9111 49.5584 33.8013 49.5211C33.7118 49.4907 33.6533 49.403 33.6582 49.3069C33.7318 48.2075 33.923 46.7177 34.2797 46.3763C34.8313 45.8509 34.7136 44.0385 34.0958 43.7158C33.478 43.3931 33.3934 43.0966 33.684 42.5901C33.7442 42.4868 33.711 42.3532 33.6098 42.2917C33.6088 42.2911 33.6078 42.2905 33.6067 42.2899L30.9626 40.7551C30.8617 40.6973 30.8258 40.5669 30.8825 40.4639C30.9139 40.4068 30.9691 40.3676 31.0325 40.3573C32.0033 40.2185 32.7977 40.5938 33.6067 41.1078C34.1278 41.4535 34.8248 41.3027 35.1635 40.771C35.2271 40.6713 35.275 40.5621 35.3057 40.4474L35.4124 40.0496C35.4419 39.9354 35.3751 39.8184 35.2631 39.7883C35.2614 39.7878 35.2597 39.7874 35.2579 39.787C33.9561 39.4567 33.7612 39.3892 33.6987 38.9914C33.6804 38.8748 33.7582 38.7651 33.8725 38.7465C33.8831 38.7447 33.8939 38.7438 33.9046 38.7438C34.3863 38.7438 34.9122 38.8038 35.2432 38.5749C35.4886 38.3087 35.6445 37.9696 35.6882 37.6068C35.7196 37.4931 35.6548 37.3749 35.5433 37.3429C35.4976 37.3297 35.4488 37.3328 35.405 37.3516C34.9453 37.5505 34.8203 37.543 34.5702 37.3516C34.4771 37.278 34.4601 37.1413 34.5323 37.0463C34.5339 37.0442 34.5355 37.0422 34.5371 37.0402C34.5937 36.9671 34.6578 36.9004 34.7284 36.8413C35.6882 36.0908 37.1592 31.8843 37.0967 30.676V30.1319C37.0967 30.0138 37.0029 29.918 36.8871 29.9179C36.8011 29.9179 36.7238 29.9715 36.6921 30.0531C35.8684 32.0194 34.9159 36.6274 30.1058 37.5242C29.711 37.5491 29.3148 37.5264 28.9253 37.4567C28.819 37.4421 28.719 37.5117 28.6936 37.618L28.4141 38.8301C28.3502 39.1008 28.3439 39.3823 28.3957 39.6556C28.4987 40.1922 28.7635 40.8527 29.0466 40.9615C33.4155 42.545 32.5954 46.4401 32.4998 47.2093C32.4907 47.2792 32.4479 47.3398 32.3858 47.3707C29.9476 48.639 31.1354 52.384 31.5142 53.4084C31.555 53.5189 31.5003 53.6423 31.392 53.684C31.3722 53.6915 31.3514 53.6961 31.3304 53.6973C31.0147 53.715 30.6983 53.6821 30.3926 53.5998C29.5542 53.3687 28.6582 53.5846 28.0096 54.1739L27.6418 54.4966C28.3111 53.7461 29.738 53.9975 30.5838 54.1664C31.1759 54.2827 31.6613 54.718 32.2718 55.1045C32.3726 55.1667 32.5037 55.1337 32.5647 55.0308C32.5844 54.9975 32.595 54.9595 32.5954 54.9206C32.5954 54.4253 32.5954 53.9975 32.5954 53.566C32.5954 53.1345 32.6212 52.5528 33.2316 52.5528C33.8421 52.5528 33.8494 53.1119 33.8531 53.5735C33.8531 54.324 33.8531 55.0445 33.8531 55.7837C33.8518 55.9018 33.9446 55.9986 34.0604 56C34.1378 56.0009 34.2094 55.9581 34.2466 55.8888C34.6144 55.2283 35.1218 54.2039 35.405 53.5622C35.4418 53.4797 35.4822 53.3971 35.5264 53.3183L36.1368 53.4046C36.1702 53.5177 36.2871 53.5818 36.398 53.5477C36.4405 53.5347 36.4778 53.5082 36.5046 53.4722C37.7304 51.5409 38.9452 49.6146 40.149 47.6934C40.2597 47.5274 40.3256 47.3345 40.3402 47.1343C40.7741 44.9654 40.4689 44.2111 40.3402 42.7627C40.2809 42.1079 40.1539 41.4614 39.9614 40.8339Z" fill="#EE2326"/>
<path d="M8.61827 40.834C8.64861 40.72 8.76378 40.6527 8.8755 40.6837C8.96556 40.7086 9.02861 40.7913 9.03014 40.8866C9.06692 41.5995 9.05221 42.3012 9.11105 42.9954C9.3317 45.6634 10.0157 48.1851 11.7883 50.2527C12.0921 50.5395 12.4482 50.7626 12.8363 50.9094C12.9432 50.9549 13.0659 50.9035 13.1106 50.7945C13.134 50.7372 13.1319 50.6723 13.1048 50.6167C12.5421 49.4534 11.9354 48.3089 11.4794 47.1044C11.0233 45.8998 10.7071 44.5865 10.3504 43.3144C10.3178 43.201 10.3815 43.0822 10.4926 43.049C10.534 43.0367 10.578 43.0376 10.6188 43.0517C10.8836 43.1455 11.2366 43.2881 11.5124 43.397C11.6207 43.4388 11.7417 43.3832 11.7828 43.2728C11.7988 43.2296 11.8007 43.1824 11.7883 43.138C11.4205 41.911 10.2952 38.3161 10.2952 38.3161C10.3651 38.3949 11.0307 39.3856 11.0822 39.4756C11.6816 40.6014 12.0383 41.0216 12.4907 42.2187C12.6819 42.7215 12.8363 43.0817 12.9209 43.2731C12.9599 43.3581 12.9389 43.4592 12.8694 43.5208C11.9206 44.3351 12.7223 45.8848 13.1269 46.3727C13.6825 47.0496 14.0833 47.8443 14.3 48.6992C14.3551 48.8755 14.4324 49.1232 14.5133 49.3859C14.5499 49.4979 14.6686 49.5585 14.7784 49.5212C14.8679 49.4908 14.9264 49.4032 14.9215 49.3071C14.8479 48.2076 14.6567 46.7179 14.3 46.3764C13.7484 45.8511 13.866 44.0386 14.4839 43.7159C15.1017 43.3932 15.1863 43.0968 14.8957 42.5902C14.8355 42.4869 14.8687 42.3533 14.9699 42.2918C14.9709 42.2912 14.9719 42.2906 14.973 42.29L17.6171 40.7552C17.718 40.6974 17.7539 40.567 17.6972 40.464C17.6658 40.407 17.6105 40.3677 17.5472 40.3575C16.5763 40.2186 15.782 40.5939 14.973 41.108C14.4519 41.4536 13.7549 41.3028 13.4161 40.7712C13.3526 40.6714 13.3046 40.5623 13.274 40.4475L13.1673 40.0498C13.1378 39.9355 13.2046 39.8185 13.3166 39.7884C13.3183 39.788 13.32 39.7875 13.3218 39.7871C14.6236 39.4569 14.8185 39.3893 14.881 38.9916C14.8993 38.8749 14.8215 38.7652 14.7071 38.7466C14.6965 38.7449 14.6858 38.744 14.6751 38.7439C14.1933 38.7439 13.6675 38.804 13.3365 38.5751C13.0897 38.3093 12.9325 37.9701 12.8878 37.6069C12.8564 37.4932 12.9212 37.375 13.0327 37.343C13.0784 37.3298 13.1272 37.3329 13.171 37.3517C13.6307 37.5506 13.7557 37.5431 14.0058 37.3517C14.0989 37.2781 14.1159 37.1414 14.0437 37.0464C14.0421 37.0443 14.0405 37.0423 14.0389 37.0403C13.9823 36.9672 13.9182 36.9006 13.8477 36.8414C12.8878 36.0909 11.4168 31.8844 11.4794 30.6761V30.3009C11.5083 30.0958 11.6948 29.9535 11.8958 29.983C12.0085 29.9996 12.1073 30.0685 12.1634 30.1696C12.9908 32.1246 13.6344 36.6088 18.4703 37.5056C18.865 37.5304 19.2612 37.5078 19.6507 37.4381C19.757 37.4234 19.857 37.4931 19.8824 37.5994L20.1619 38.8115C20.2258 39.0821 20.2321 39.3636 20.1803 39.637C20.0773 40.1736 19.8125 40.834 19.5294 40.9429C14.4397 42.7816 15.9806 46.4177 16.0762 47.1869C16.0861 47.2585 16.1302 47.3204 16.1939 47.3521C18.6247 48.6241 17.4442 52.3653 17.0655 53.386C17.0246 53.4965 17.0794 53.6199 17.1877 53.6616C17.2075 53.6692 17.2282 53.6737 17.2493 53.6749C17.5208 53.6892 17.7928 53.6665 18.0584 53.6074C19.0345 53.3941 20.0515 53.6734 20.7907 54.3579L20.9231 54.478C19.5367 53.7275 19.0844 53.8588 17.9811 54.1478C17.377 54.3756 16.8085 54.6916 16.2932 55.0859C16.1924 55.148 16.0612 55.1151 16.0003 55.0122C15.9806 54.9789 15.97 54.9409 15.9696 54.902C15.9696 54.4067 15.9696 53.9789 15.9696 53.5474C15.9696 53.1158 15.9438 52.5342 15.3334 52.5342C14.7229 52.5342 14.7155 53.0933 14.7119 53.5549C14.7119 54.3054 14.7119 55.0258 14.7119 55.7651C14.7132 55.8832 14.6204 55.98 14.5046 55.9813C14.4272 55.9822 14.3555 55.9395 14.3184 55.8701C13.9506 55.2097 13.4431 54.1853 13.16 53.5436C13.1232 53.4611 13.0827 53.3785 13.0386 53.2997L12.4281 53.386C12.3948 53.4991 12.2778 53.5632 12.167 53.5291C12.1245 53.5161 12.0872 53.4896 12.0604 53.4536C10.8346 51.5223 9.61977 49.596 8.416 47.6748C8.30529 47.5088 8.23933 47.3159 8.22477 47.1157C7.79083 44.9467 8.09605 44.1925 8.22477 42.7441C8.29015 42.0951 8.42204 41.4549 8.61827 40.834Z" fill="#EE2326"/>
<path d="M57.1537 48.0537H52.042L48.1659 41.8546H48.1254V48.0537H44.0177V31.9181H50.1591C51.8066 31.9181 53.1342 32.3309 54.1418 33.1564C55.1494 33.9819 55.652 35.2215 55.6496 36.8751C55.6768 37.9508 55.3563 39.0057 54.7376 39.877C54.126 40.7214 53.2104 41.283 52.1927 41.4381L57.1537 48.0537ZM48.1254 39.1603H48.5226C48.877 39.1619 49.231 39.1369 49.5817 39.0853C49.8955 39.04 50.1999 38.9424 50.4827 38.7963C50.7526 38.6568 50.9782 38.4421 51.1336 38.1772C51.4535 37.5319 51.4535 36.7699 51.1336 36.1246C50.9778 35.8601 50.7522 35.6455 50.4827 35.5054C50.1999 35.3594 49.8955 35.2618 49.5817 35.2165C49.231 35.1649 48.877 35.1398 48.5226 35.1414H48.1254V39.1603Z" fill="#EE2326"/>
<path d="M62.3684 35.4829V38.1772H66.9983V41.727H62.3684V44.5038H67.2484V48.0536H58.2643V31.9181H67.2521V35.4679H62.3684V35.4829Z" fill="#EE2326"/>
<path d="M69.7859 31.9331H75.611C76.6746 31.9268 77.7291 32.1334 78.7148 32.541C79.6753 32.9373 80.55 33.5226 81.2891 34.2634C82.0269 35.0002 82.6144 35.879 83.0175 36.8488C83.432 37.8416 83.6423 38.9106 83.6353 39.9896C83.6411 41.0697 83.427 42.1392 83.0065 43.1304C82.5982 44.0969 82.0071 44.9716 81.267 45.7046C80.5249 46.4416 79.651 47.0263 78.6928 47.427C77.716 47.8399 76.6684 48.0504 75.611 48.0461H69.7859V31.9106V31.9331ZM73.8937 44.5038H74.8167C75.4127 44.5086 76.0057 44.4187 76.5745 44.2374C77.1062 44.0669 77.598 43.7873 78.0198 43.4156C78.4521 43.0261 78.7895 42.5391 79.0054 41.9934C79.2577 41.3585 79.3827 40.6785 79.3731 39.9934C79.3731 38.5825 78.9612 37.478 78.1375 36.68C77.2456 35.8558 76.0702 35.4254 74.8682 35.4829H73.9047V44.4888L73.8937 44.5038Z" fill="#EE2326"/>
<path d="M99.011 48.0536H94.8958V35.4829H91.5126V31.933H102.405V35.4829H99.0109V48.0536H99.011Z" fill="#EE2326"/>
<path d="M108.002 48.0537H103.895V31.9181H108.002V48.0537Z" fill="#EE2326"/>
<path d="M126.438 39.0516C126.431 40.2433 126.315 41.4317 126.092 42.6015C125.866 43.622 125.434 44.5832 124.823 45.4233C124.111 46.4566 123.142 47.2788 122.017 47.8061C120.851 48.3368 119.587 48.603 118.31 48.5866C117.152 48.5997 116.001 48.3936 114.916 47.9787C113.914 47.5935 113.001 47.0006 112.235 46.2376C111.473 45.4721 110.88 44.5498 110.496 43.5321C110.081 42.4308 109.875 41.2594 109.889 40.0798C109.874 38.8674 110.084 37.6631 110.507 36.53C110.898 35.4947 111.498 34.555 112.268 33.7719C113.042 32.9935 113.97 32.3923 114.99 32.0083C116.1 31.5932 117.275 31.3872 118.457 31.4004C119.964 31.3601 121.452 31.75 122.753 32.5261C124.01 33.332 124.997 34.5102 125.581 35.9033L121.683 37.5694C121.426 36.8285 120.968 36.1776 120.362 35.6932C119.759 35.2315 119.02 34.9909 118.266 35.0102C117.66 35.0007 117.062 35.1479 116.527 35.438C116.012 35.7208 115.568 36.12 115.229 36.605C114.876 37.1043 114.606 37.6596 114.431 38.2486C114.069 39.4543 114.069 40.7428 114.431 41.9485C114.605 42.537 114.877 43.0905 115.236 43.5846C115.587 44.0565 116.039 44.4414 116.556 44.7103C117.104 44.9941 117.711 45.1371 118.325 45.1268C119.146 45.16 119.952 44.9028 120.609 44.3988C121.224 43.8869 121.597 43.1326 121.635 42.3237H118.285V39.0328H126.434L126.438 39.0516Z" fill="#EE2326"/>
<path d="M132.428 35.4829V38.1772H137.058V41.727H132.428V44.5038H137.308V48.0536H128.324V31.9181H137.312V35.4679H132.428V35.4829Z" fill="#EE2326"/>
<path d="M153 48.0537H147.851L143.975 41.8546H143.953V48.0537H139.846V31.9181H145.987C147.635 31.9181 148.962 32.3309 149.97 33.1564C150.977 33.9819 151.48 35.2215 151.477 36.8751C151.505 37.9508 151.184 39.0057 150.565 39.877C149.954 40.7214 149.038 41.283 148.021 41.4381L153 48.0537ZM143.972 39.1603H144.369C144.723 39.1619 145.077 39.1369 145.428 39.0853C145.742 39.04 146.046 38.9424 146.329 38.7963C146.599 38.6568 146.825 38.4421 146.98 38.1772C147.3 37.5319 147.3 36.7699 146.98 36.1246C146.824 35.8601 146.599 35.6455 146.329 35.5054C146.046 35.3594 145.742 35.2618 145.428 35.2165C145.077 35.1649 144.723 35.1398 144.369 35.1414H143.953V39.1603H143.972Z" fill="#EE2326"/>
</svg>
